<svg width="100" height="100" viewBox="0 0 100 100" fill="none" xmlns="http://www.w3.org/2000/svg">
<rect width="100" height="100" rx="15" fill="url(#paint0_linear_1658_7324)"/>
<path d="M70 55L68.9825 45.8425C68.2775 39.4975 67.925 36.3225 65.79 34.4125C63.65 32.5 60.46 32.5 54.075 32.5H45.925C39.54 32.5 36.3475 32.5 34.21 34.4125C32.075 36.3225 31.7225 39.4975 31.0175 45.8425L30 55M48.75 25H55M55 25H61.25M55 25V32.5M61.6675 55H38.3325C32.8675 55 30.135 55 28.1975 56.3575C27.4825 56.8575 26.8575 57.4825 26.3575 58.1975C25 60.135 25 62.8675 25 68.3325C25 71.065 25 72.4325 25.6775 73.4C25.9292 73.7617 26.2367 74.0692 26.6 74.3225C27.5675 75 28.935 75 31.6675 75H68.3325C71.065 75 72.4325 75 73.4 74.3225C73.7617 74.0692 74.0692 73.7617 74.3225 73.4C75 72.4325 75 71.065 75 68.3325C75 62.8675 75 60.135 73.6425 58.1975C73.1425 57.4825 72.5175 56.8575 71.8025 56.3575C69.865 55 67.1325 55 61.6675 55Z" stroke="white" stroke-width="4" stroke-linecap="round" stroke-linejoin="round"/>
<path d="M42.5 63.75L44.99 65.41C45.8117 65.9579 46.7773 66.2502 47.765 66.25H52.235C53.2227 66.2502 54.1883 65.9579 55.01 65.41L57.5 63.75M40 40H45" stroke="white" stroke-width="4" stroke-linecap="round" stroke-linejoin="round"/>
<defs>
<linearGradient id="paint0_linear_1658_7324" x1="0" y1="100" x2="100" y2="0" gradientUnits="userSpaceOnUse">
<stop stop-color="#286DE1"/>
<stop offset="1" stop-color="#5F95F0"/>
</linearGradient>
</defs>
</svg>
